<svg width="90" height="90" viewBox="0 0 90 90" fill="none" xmlns="http://www.w3.org/2000/svg">
<path d="M66.7063 36.14C70.3798 40.8841 72.3815 46.7096 72.3999 52.7096C72.4183 58.7096 70.4522 64.5474 66.8079 69.3138C63.1636 74.0803 58.0455 77.508 52.2505 79.0633C46.4555 80.6186 40.3089 80.2141 34.7677 77.9128C29.2266 75.6115 24.6018 71.5427 21.6135 66.3397C18.6252 61.1368 17.4411 55.0918 18.2457 49.1459C19.0502 43.2 21.7981 37.687 26.0616 33.4653C30.325 29.2435 35.8648 26.55 41.8183 25.804V18.8H48.6183V25.804C53.5823 26.416 58.1383 28.388 61.8783 31.312L66.8423 26.348L71.6703 31.176L66.7063 36.106V36.14ZM45.2183 73.2C50.6287 73.2 55.8175 71.0507 59.6433 67.225C63.469 63.3992 65.6183 58.2104 65.6183 52.8C65.6183 47.3896 63.469 42.2008 59.6433 38.375C55.8175 34.5493 50.6287 32.4 45.2183 32.4C39.8079 32.4 34.6191 34.5493 30.7933 38.375C26.9676 42.2008 24.8183 47.3896 24.8183 52.8C24.8183 58.2104 26.9676 63.3992 30.7933 67.225C34.6191 71.0507 39.8079 73.2 45.2183 73.2ZM35.0183 12H55.4183V18.8H35.0183V12ZM52.4263 40.764L57.2543 45.592L45.2183 57.56L40.4243 52.8L52.4263 40.764Z" fill="#DA167B"/>
</svg>
