<svg width="100" height="100" viewBox="0 0 100 100" fill="none" xmlns="http://www.w3.org/2000/svg">
<path fill-rule="evenodd" clip-rule="evenodd" d="M56.9745 43.0442V37.8272C56.9745 33.1128 54.1921 29.9828 50.0194 29.9828C45.8078 29.9828 43.0255 33.1128 43.0255 37.8272V43.083L56.9745 43.0442ZM36.2246 47.4111C36.2246 44.6673 37.3451 43.3536 39.7026 43.1217V38.0979C39.7026 31.2965 43.8365 26.7372 50.0193 26.7372C56.1633 26.7372 60.2972 31.2965 60.2972 38.0979V43.1217C62.6547 43.3148 63.7752 44.6286 63.7752 47.4111V62.8681C63.7752 65.8438 62.4616 67.1963 59.6792 67.1963H40.3206C37.5382 67.1963 36.2246 65.8438 36.2246 62.8681V47.4111ZM52.2605 82.1898C70.1124 70.9447 76.6038 67.8147 76.6038 56.067V28.553C76.6038 26.6211 76.2556 25.8479 74.7876 25.3074C69.5711 23.4136 57.0133 18.7767 51.8743 16.7285C51.1012 16.4579 50.4831 16.2648 50.0194 16.2648C49.5169 16.2648 48.8601 16.4191 48.1645 16.7285C42.9867 18.7767 30.3514 23.2592 25.2124 25.3074C23.7445 25.8867 23.3963 26.6211 23.3963 28.553V56.067C23.3963 67.8147 29.8109 71.0222 47.7395 82.1898C48.667 82.7303 49.3626 83.0397 50.0194 83.0397C50.6374 83.0397 51.333 82.7303 52.2605 82.1898V82.1898ZM47.4301 87.5997C25.8692 74.9633 18.6434 70.3644 18.6434 57.0719V27.7028C18.6434 23.5685 20.1897 22.1772 23.7444 20.7859C29.2308 18.6222 41.4412 13.9458 46.9284 12.1683C47.9326 11.8597 48.9764 11.589 50.0194 11.589C51.0236 11.589 52.0674 11.8209 53.0716 12.1683C58.5975 14.0621 70.7692 18.5834 76.2555 20.7859C79.8103 22.216 81.3565 23.5685 81.3565 27.7028V57.0719C81.3565 70.3644 74.2076 75.0796 52.5699 87.5997C51.6812 88.1022 50.715 88.4109 50.0194 88.4109C49.285 88.4109 48.3188 88.1022 47.4301 87.5997V87.5997Z" fill="#DA167B"/>
</svg>
