<svg width="90" height="90" viewBox="0 0 90 90" fill="none" xmlns="http://www.w3.org/2000/svg">
<rect x="12" y="25" width="66" height="42" rx="5" stroke="#DA167B" stroke-width="4"/>
<path d="M37.9231 67H51.0769L54 79H35L37.9231 67Z" stroke="#DA167B" stroke-width="3"/>
<rect x="13.5" y="57.5" width="63" height="1" fill="black" stroke="#DA167B"/>
<rect x="26.5" y="78.5" width="35" height="3" rx="1.5" fill="#DA167B" stroke="#DA167B"/>
<ellipse cx="45" cy="28.5" rx="20" ry="20.5" fill="white"/>
<rect x="29.5" y="43.5" width="31" height="3" rx="1.5" fill="#DA167B" stroke="#DA167B"/>
<path fill-rule="evenodd" clip-rule="evenodd" d="M60.8629 28.26C60.8629 37.0434 53.7426 44.1636 44.9593 44.1636C36.1759 44.1636 29.0557 37.0434 29.0557 28.26C29.0557 19.4767 36.1759 12.3564 44.9593 12.3564C53.7426 12.3564 60.8629 19.4767 60.8629 28.26ZM50.0521 33.9565C50.8288 33.1587 51.2172 32.1931 51.2172 31.0595C51.2172 30.0658 50.9757 29.2751 50.4929 28.6873C50.0101 28.0995 49.4363 27.6726 48.7715 27.4067C48.1067 27.1408 47.2565 26.8889 46.2209 26.651L45.8229 26.555C45.0586 26.3631 44.4845 26.1712 44.1006 25.9792C43.6528 25.7553 43.4288 25.4194 43.4288 24.9716C43.4288 24.5097 43.6248 24.1424 44.0166 23.8695C44.4085 23.5965 44.9193 23.4601 45.5491 23.4601C45.983 23.4601 46.3923 23.5126 46.7772 23.6175C47.1621 23.7225 47.5224 23.8625 47.8583 24.0374L48.5091 24.3838C48.656 24.4608 48.7855 24.5255 48.8975 24.578L49.1809 24.6987C49.3348 24.7546 49.4957 24.7826 49.6637 24.7826C49.9996 24.7826 50.2935 24.6287 50.5454 24.3208C50.7973 24.0129 50.9233 23.649 50.9233 23.2292C50.9233 22.9353 50.8708 22.6869 50.7658 22.4839C50.6608 22.281 50.4824 22.0956 50.2305 21.9276C49.1249 21.2279 47.9913 20.787 46.8297 20.6051V19.6184C46.8297 19.1846 46.6932 18.8347 46.4203 18.5688C46.1474 18.3029 45.794 18.1699 45.3602 18.1699C44.9403 18.1699 44.5904 18.3064 44.3105 18.5793C44.0306 18.8522 43.8907 19.1986 43.8907 19.6184V20.6681C42.6031 20.934 41.5675 21.4798 40.7838 22.3055C40 23.1312 39.6082 24.1039 39.6082 25.2235C39.6082 26.2032 39.8531 26.9834 40.3429 27.5642C40.8327 28.145 41.4135 28.5718 42.0853 28.8447C42.7571 29.1176 43.6178 29.387 44.6674 29.653L45.6814 29.925L46.1684 30.0728C46.5113 30.1848 46.7982 30.3352 47.0291 30.5242C47.26 30.7131 47.3755 30.9545 47.3755 31.2484C47.3755 31.7382 47.1831 32.1056 46.7982 32.3505C46.4133 32.5954 45.85 32.7179 45.1083 32.7179C44.5065 32.7179 43.9397 32.6479 43.4079 32.508C42.876 32.368 42.3022 32.1301 41.6864 31.7942C41.4205 31.6403 41.2036 31.5353 41.0357 31.4793C40.8677 31.4233 40.6998 31.3954 40.5318 31.3954C40.196 31.3954 39.9056 31.5493 39.6606 31.8572C39.4157 32.1651 39.2933 32.529 39.2933 32.9488C39.2933 33.2707 39.3458 33.5296 39.4507 33.7256C39.5557 33.9215 39.7341 34.0964 39.986 34.2504C41.0917 34.9641 42.4212 35.419 43.9747 35.6149V36.5596C43.9747 36.9934 44.1111 37.3433 44.384 37.6092C44.6569 37.8751 45.0103 38.0081 45.4441 38.0081C45.878 38.0081 46.2314 37.8751 46.5043 37.6092C46.7772 37.3433 46.9136 36.9934 46.9136 36.5596V35.5309C48.2292 35.279 49.2753 34.7542 50.0521 33.9565Z" fill="#DA167B"/>
</svg>
